<svg xmlns="http://www.w3.org/2000/svg" viewBox="0 0 512 512" role="img" aria-labelledby="title desc"><title id="title">Heart Connect</title><desc id="desc">Heart Connect logo.</desc><defs><linearGradient id="f" x1="0" y1="0" x2="1" y2="1"><stop stop-color="#ff009d"/><stop offset=".5" stop-color="#8d00ff"/><stop offset="1" stop-color="#3b00ff"/></linearGradient><radialGradient id="b"><stop stop-color="#16002e"/><stop offset=".7" stop-color="#08001c"/><stop offset="1" stop-color="#16004d"/></radialGradient><linearGradient id="p" x1="0" y1="0" x2="1" y2="1"><stop stop-color="#fff"/><stop offset=".45" stop-color="#ff48ad"/><stop offset="1" stop-color="#ff0087"/></linearGradient><linearGradient id="q" x1="0" y1="0" x2="1" y2="1"><stop stop-color="#fff"/><stop offset=".45" stop-color="#d94cff"/><stop offset="1" stop-color="#4200ff"/></linearGradient><filter id="g"><feGaussianBlur stdDeviation="7" result="x"/><feMerge><feMergeNode in="x"/><feMergeNode in="SourceGraphic"/></feMerge></filter></defs><rect width="512" height="512" rx="112" fill="url(#f)"/><rect x="48" y="48" width="416" height="416" rx="106" fill="url(#b)" stroke="#ffb9f3" stroke-width="5"/><path d="M-20 210 210-20h90L20 280z" fill="#ff2bb2" opacity=".28"/><path d="M260 540 540 260v120L380 540z" fill="#6d20ff" opacity=".3"/><circle cx="167" cy="155" r="48" fill="url(#p)"/><circle cx="345" cy="155" r="48" fill="url(#q)"/><path d="M94 276c0-58 39-99 91-99 42 0 68 26 71 57 3-31 29-57 71-57 52 0 91 41 91 99 0 67-57 113-162 183C151 389 94 343 94 276Z" fill="none" stroke="url(#p)" stroke-width="34" stroke-linecap="round" stroke-linejoin="round"/><path d="M256 460C151 389 94 343 94 276c0-58 39-99 91-99 42 0 68 26 71 57 3-31 29-57 71-57 52 0 91 41 91 99 0 67-57 113-162 183Z" fill="none" stroke="url(#q)" stroke-width="34" stroke-linecap="round" stroke-linejoin="round" opacity=".72"/><g filter="url(#g)"><path d="M256 360c-13-11-55-43-72-63-25-29-7-70 28-70 20 0 34 12 44 27 10-15 24-27 44-27 35 0 53 41 28 70-17 20-59 52-72 63Z" fill="none" stroke="#fff" stroke-width="13"/><circle cx="210" cy="300" r="17" fill="#fff"/><circle cx="302" cy="300" r="17" fill="#fff"/></g></svg>